<svg width="151" height="30" viewBox="0 0 151 30" fill="none" xmlns="http://www.w3.org/2000/svg">
<mask id="path-1-inside-1_25_100" fill="white">
<path d="M0 0.289124H151V29.7109H0V0.289124Z"/>
</mask>
<path d="M150 0.289124V29.7109H152V0.289124H150Z" fill="#84619B" mask="url(#path-1-inside-1_25_100)"/>
<path fill-rule="evenodd" clip-rule="evenodd" d="M9.7093 9.5818C10.1258 9.57762 10.5256 9.60271 10.917 9.65706C11.2377 9.70306 11.65 9.76995 11.8332 9.80758C12.0165 9.84939 12.3538 9.93301 12.5829 10.0041C12.8119 10.071 13.1659 10.1964 13.3741 10.2759C13.5782 10.3595 13.9447 10.5225 14.1862 10.6438C14.4278 10.765 14.7817 10.9657 14.9775 11.0912C15.1732 11.2124 15.4814 11.4256 15.6605 11.5636C15.8437 11.7016 16.1644 11.965 16.3684 12.1532C16.5767 12.3371 16.9307 12.7051 17.1597 12.9685C17.3846 13.2277 17.7261 13.6792 17.9135 13.9677C18.1051 14.2562 18.3758 14.7161 18.5132 14.9921C18.6506 15.268 18.8422 15.6987 18.9338 15.9537C19.0296 16.2046 19.1712 16.6562 19.2462 16.9572C19.3253 17.254 19.4169 17.7056 19.4502 17.9606C19.4877 18.2115 19.5335 18.638 19.5543 18.9014C19.5835 19.2568 19.5793 19.5578 19.5335 20.0721C19.5044 20.4525 19.4461 20.9208 19.4127 21.1173C19.3753 21.3138 19.2878 21.6901 19.2212 21.9535C19.1504 22.217 19.0171 22.6309 18.9296 22.8734C18.838 23.1159 18.6548 23.5298 18.5257 23.7932C18.3966 24.0566 18.1259 24.5165 17.9302 24.8176C17.7303 25.1144 17.3846 25.5785 17.1597 25.8377C16.9307 26.1012 16.5767 26.4691 16.3684 26.6531C16.1644 26.8412 15.8437 27.1046 15.6605 27.2426C15.4814 27.3806 15.1732 27.5938 14.9775 27.715C14.7817 27.8405 14.4402 28.0328 14.2154 28.1457C13.9946 28.2586 13.6282 28.4258 13.4033 28.5136C13.1825 28.6014 12.8411 28.7269 12.6453 28.7854C12.4496 28.8439 12.1123 28.9317 11.8957 28.9777C11.6791 29.0279 11.2377 29.1032 10.917 29.1491C10.5839 29.1951 10.1008 29.2286 9.79259 29.2286C9.47609 29.2286 8.98883 29.191 8.62652 29.145C8.28086 29.0948 7.76862 28.9986 7.48126 28.9275C7.19391 28.8606 6.77329 28.7352 6.54423 28.6558C6.31518 28.5763 5.89456 28.4007 5.60721 28.2628C5.31985 28.1248 5.06581 28.0161 5.04499 28.0161C5.02 28.0161 4.13295 28.2837 3.06682 28.6056C2.0007 28.9317 1.03452 29.2035 0.922074 29.216C0.759656 29.2328 0.676365 29.216 0.530605 29.1366C0.430656 29.0822 0.284896 28.9652 0.209934 28.8732C0.130807 28.7812 0.0475157 28.6223 0.0266929 28.5178C0.00170555 28.4133 -0.00662357 28.2711 0.0100347 28.2042C0.0225284 28.1331 0.29739 27.205 0.613896 26.1346C0.934568 25.0642 1.19277 24.1695 1.19277 24.1486C1.19277 24.1235 1.08449 23.8727 0.947061 23.5842C0.809631 23.2957 0.62639 22.8441 0.53477 22.5807C0.443149 22.3173 0.322377 21.8908 0.264073 21.64C0.205769 21.3849 0.126642 20.9626 0.0933259 20.6992C0.0600094 20.4358 0.0183638 20.0094 0.00587012 19.7585C-0.00662357 19.5034 0.00170555 19.0435 0.0225284 18.7341C0.0475157 18.4247 0.0974905 17.9899 0.134972 17.7725C0.172453 17.5551 0.255744 17.1662 0.318212 16.9154C0.380681 16.6603 0.505618 16.2673 0.588909 16.0374C0.6722 15.8074 0.859606 15.3726 1.00537 15.0757C1.15112 14.7747 1.35935 14.39 1.46763 14.2186C1.57591 14.0472 1.79247 13.7336 1.94656 13.5287C2.10065 13.3197 2.35885 13.0019 2.52127 12.8179C2.68785 12.634 2.98353 12.3371 3.18343 12.1532C3.38333 11.9734 3.72483 11.6932 3.94138 11.526C4.15794 11.3629 4.57023 11.0912 4.85759 10.9239C5.14494 10.7567 5.57389 10.5351 5.81544 10.4306C6.05698 10.3219 6.46927 10.1672 6.73164 10.0793C6.99401 9.99155 7.4063 9.87866 7.64784 9.82431C7.88939 9.77413 8.31001 9.69887 8.58487 9.66124C8.85973 9.61943 9.36781 9.58599 9.7093 9.5818ZM8.75145 11.4633C8.54323 11.4884 8.21839 11.5469 8.02265 11.5887C7.82692 11.6347 7.46044 11.7392 7.21056 11.8229C6.95653 11.9065 6.48177 12.1113 6.1486 12.2828C5.81544 12.45 5.36566 12.7176 5.14911 12.8723C4.91589 13.0354 4.5036 13.4033 4.14961 13.7587C3.79562 14.1099 3.42914 14.5322 3.26256 14.7621C3.10847 14.9795 2.8461 15.4311 2.67535 15.7656C2.50461 16.1084 2.29638 16.6018 2.20059 16.8945C2.10897 17.183 1.99237 17.6052 1.94656 17.8352C1.90075 18.0652 1.84244 18.5167 1.81329 18.8387C1.77997 19.2819 1.77581 19.562 1.81329 19.9885C1.83828 20.2978 1.90908 20.7787 1.96321 21.0546C2.02152 21.3306 2.13813 21.7529 2.21725 21.9954C2.30054 22.2379 2.4588 22.6225 2.57124 22.8525C2.67952 23.0824 2.83361 23.3835 2.90441 23.5214C2.97937 23.6594 3.046 23.8476 3.0585 23.9395C3.06682 24.065 2.96271 24.4789 2.65453 25.5283C2.42132 26.3102 2.23808 26.9541 2.24224 26.9625C2.25057 26.9708 2.89191 26.7827 3.67069 26.5527C4.72432 26.2349 5.12828 26.1304 5.25322 26.143C5.34484 26.1555 5.5489 26.2308 5.71132 26.3186C5.86958 26.4022 6.18192 26.5569 6.39848 26.6614C6.61503 26.7701 7.01066 26.9248 7.27303 27.0126C7.5354 27.1046 7.93936 27.2133 8.16841 27.2593C8.39746 27.3053 8.76811 27.3638 8.993 27.3847C9.21372 27.4098 9.57187 27.4307 9.7801 27.4307C9.99249 27.4307 10.3465 27.4098 10.563 27.3889C10.7796 27.3638 11.1544 27.3053 11.396 27.2593C11.6375 27.2091 12.029 27.1046 12.2705 27.0252C12.5121 26.9457 12.941 26.7701 13.2284 26.6321C13.5157 26.4942 13.928 26.26 14.1446 26.1179C14.3611 25.9715 14.636 25.7792 14.7484 25.6872C14.865 25.5952 15.0774 25.4113 15.2232 25.2733C15.3689 25.1395 15.6313 24.8677 15.8021 24.6712C15.9728 24.4747 16.2477 24.1068 16.4184 23.8559C16.585 23.6009 16.8349 23.1619 16.9723 22.8734C17.1097 22.5849 17.2763 22.1793 17.3471 21.9745C17.4179 21.7654 17.5179 21.3807 17.5762 21.1173C17.6345 20.8539 17.7011 20.44 17.7261 20.1975C17.7469 19.955 17.7677 19.5954 17.7677 19.3947C17.7677 19.1899 17.7469 18.8428 17.7219 18.6212C17.7011 18.3955 17.6428 18.0234 17.597 17.7934C17.5512 17.5634 17.4387 17.1495 17.3471 16.8736C17.2555 16.5976 17.0931 16.1837 16.9806 15.9537C16.8724 15.7238 16.6849 15.3767 16.5642 15.1802C16.4434 14.9837 16.2185 14.666 16.0686 14.4695C15.9145 14.2729 15.6147 13.9343 15.3939 13.7169C15.1774 13.4995 14.8276 13.1942 14.6235 13.0395C14.4153 12.8848 14.0529 12.6382 13.8114 12.496C13.5699 12.3497 13.1409 12.1364 12.8535 12.0152C12.5662 11.8939 12.1164 11.7392 11.8541 11.6682C11.5917 11.6013 11.1877 11.5176 10.9587 11.4842C10.7296 11.4507 10.309 11.4131 10.0216 11.4047C9.73429 11.3922 9.41778 11.3922 9.31367 11.4006C9.20955 11.4089 8.95552 11.4382 8.75145 11.4633Z" fill="white" fill-opacity="0.24"/>
<path fill-rule="evenodd" clip-rule="evenodd" d="M8.25559 10.4943C8.25661 10.9124 8.28657 11.3134 8.34558 11.7057C8.39538 12.0271 8.46714 12.4402 8.5069 12.6236C8.55082 12.8071 8.6383 13.1447 8.71195 13.3737C8.78143 13.6028 8.91076 13.9566 8.99247 14.1647C9.0783 14.3685 9.24526 14.7344 9.36903 14.9753C9.4928 15.2163 9.69709 15.5692 9.82445 15.7641C9.94765 15.9591 10.1639 16.2658 10.3035 16.4439C10.4432 16.6261 10.7096 16.9447 10.8995 17.1473C11.0853 17.354 11.4562 17.7048 11.7214 17.9314C11.9823 18.154 12.4363 18.4912 12.726 18.6757C13.0157 18.8644 13.4771 19.1305 13.7537 19.265C14.0302 19.3995 14.4616 19.5865 14.7167 19.6753C14.9678 19.7683 15.4193 19.9048 15.72 19.9763C16.0167 20.0521 16.4675 20.1384 16.722 20.1687C16.9723 20.2032 17.3976 20.2439 17.6602 20.2615C18.0145 20.2864 18.3143 20.2784 18.826 20.226C19.2045 20.192 19.6702 20.1277 19.8655 20.0918C20.0608 20.0517 20.4345 19.9592 20.696 19.8891C20.9574 19.8147 21.368 19.6758 21.6085 19.585C21.8489 19.49 22.2588 19.3009 22.5196 19.168C22.7803 19.0351 23.235 18.7576 23.5324 18.5574C23.8256 18.353 24.2835 18.0003 24.5389 17.7713C24.7984 17.538 25.1604 17.1781 25.3411 16.9668C25.5259 16.7596 25.7843 16.4344 25.9194 16.2487C26.0546 16.0672 26.2631 15.7552 26.3815 15.5572C26.504 15.3591 26.6913 15.0139 26.8009 14.7868C26.9106 14.5638 27.0726 14.1938 27.1573 13.9669C27.242 13.7443 27.3626 13.3999 27.4185 13.2027C27.4744 13.0054 27.5576 12.6657 27.6007 12.4477C27.648 12.2297 27.7175 11.7856 27.7593 11.4631C27.8009 11.1281 27.8282 10.6427 27.8244 10.3333C27.8205 10.0156 27.7769 9.52693 27.7266 9.16378C27.6723 8.81741 27.5702 8.30437 27.4958 8.01679C27.4256 7.72915 27.2954 7.30846 27.2135 7.07951C27.1315 6.85055 26.9514 6.43049 26.8104 6.14373C26.6694 5.85698 26.5579 5.60331 26.5577 5.58241C26.5574 5.55732 26.8128 4.66349 27.1202 3.58922C27.4317 2.51489 27.6904 1.54158 27.7015 1.42855C27.7161 1.26529 27.6984 1.18188 27.6175 1.03655C27.5621 0.936885 27.4437 0.792016 27.3512 0.717908C27.2586 0.639619 27.0993 0.557982 26.9949 0.538379C26.8905 0.514596 26.7488 0.508004 26.6824 0.525559C26.6118 0.538986 25.6907 0.826468 24.6286 1.15753C23.5666 1.49276 22.6786 1.76311 22.6578 1.76337C22.6328 1.76368 22.3816 1.6581 22.0926 1.52373C21.8035 1.38936 21.3515 1.21102 21.088 1.12233C20.8245 1.03363 20.3983 0.917696 20.1477 0.862289C19.893 0.806933 19.4714 0.732755 19.2086 0.702588C18.9459 0.672421 18.5206 0.635921 18.2706 0.626502C18.0164 0.617134 17.5584 0.63122 17.2505 0.655975C16.9427 0.68491 16.5102 0.740491 16.2942 0.780824C16.0781 0.821157 15.6919 0.909611 15.4428 0.975445C15.1895 1.04133 14.7997 1.17164 14.5717 1.25812C14.3437 1.3446 13.9129 1.53814 13.6191 1.68816C13.3211 1.83824 12.9405 2.05206 12.7712 2.16289C12.6018 2.27373 12.2921 2.49503 12.09 2.65226C11.8837 2.80955 11.5704 3.07271 11.3892 3.23805C11.2081 3.40757 10.9161 3.7081 10.7354 3.91106C10.5588 4.11398 10.284 4.46028 10.1202 4.67976C9.96046 4.89919 9.69492 5.31646 9.53192 5.60702C9.36893 5.89757 9.15357 6.33094 9.05247 6.57473C8.9472 6.81856 8.79826 7.23438 8.71407 7.49886C8.62989 7.76334 8.52259 8.17863 8.47146 8.42179C8.42449 8.6649 8.35477 9.08809 8.32072 9.36449C8.28249 9.64094 8.25551 10.1514 8.25559 10.4943ZM10.1176 9.50929C10.14 9.29994 10.1942 8.97311 10.2334 8.7761C10.2768 8.57903 10.3763 8.20983 10.4565 7.95794C10.5366 7.70188 10.7348 7.22272 10.9014 6.88613C11.0638 6.54959 11.3247 6.09474 11.4761 5.87542C11.6356 5.63927 11.9969 5.22079 12.3465 4.86101C12.6919 4.50127 13.1079 4.12811 13.3348 3.95802C13.5495 3.80063 13.9959 3.53162 14.327 3.35605C14.6663 3.18037 15.1551 2.96519 15.4454 2.8654C15.7316 2.76983 16.1507 2.64751 16.3792 2.59866C16.6076 2.54981 17.0567 2.48566 17.3769 2.45239C17.8179 2.41343 18.0969 2.40576 18.5221 2.43808C18.8306 2.45931 19.3103 2.5244 19.5859 2.57531C19.8614 2.63041 20.2835 2.74221 20.526 2.81863C20.7685 2.89922 21.1536 3.0533 21.384 3.16332C21.6144 3.26916 21.9162 3.4201 22.0545 3.48945C22.1928 3.56299 22.381 3.62754 22.4728 3.63894C22.5978 3.64574 23.0088 3.53607 24.0502 3.21363C24.826 2.96978 25.465 2.77781 25.4734 2.78189C25.4818 2.79015 25.3024 3.43632 25.0831 4.22098C24.7797 5.28266 24.6806 5.68949 24.6947 5.81476C24.7083 5.90658 24.7858 6.1105 24.8753 6.27245C24.9605 6.43028 25.1185 6.74191 25.2253 6.958C25.3363 7.17405 25.4953 7.56929 25.586 7.83159C25.6809 8.09383 25.7942 8.498 25.8428 8.72737C25.8915 8.95674 25.9544 9.3281 25.978 9.5536C26.0057 9.77486 26.031 10.1341 26.0336 10.3432C26.0363 10.5564 26.0198 10.912 26.0017 11.1297C25.9794 11.3474 25.9258 11.7244 25.883 11.9674C25.836 12.2105 25.7368 12.6048 25.6607 12.8483C25.5846 13.0918 25.415 13.5246 25.2812 13.8148C25.1473 14.105 24.9193 14.5218 24.7804 14.7409C24.6373 14.9601 24.4492 15.2385 24.359 15.3525C24.2688 15.4707 24.0882 15.6862 23.9526 15.8343C23.8212 15.9822 23.5538 16.249 23.3602 16.4229C23.1666 16.5967 22.8035 16.8772 22.5558 17.0518C22.3039 17.2222 21.8697 17.4785 21.5841 17.62C21.2985 17.7616 20.8966 17.9339 20.6935 18.0075C20.4861 18.0812 20.1043 18.1863 19.8426 18.2481C19.581 18.3099 19.1696 18.3819 18.9284 18.41C18.6871 18.434 18.3293 18.4594 18.1294 18.4618C17.9253 18.4644 17.5794 18.4478 17.3584 18.4255C17.1333 18.4074 16.7619 18.3535 16.5323 18.3104C16.3027 18.2672 15.8891 18.1595 15.6131 18.071C15.3371 17.9824 14.9228 17.8245 14.6924 17.7145C14.462 17.6087 14.1141 17.4249 13.9168 17.3061C13.7196 17.1873 13.4003 16.9655 13.2027 16.8174C13.0051 16.6652 12.6641 16.3684 12.4448 16.1495C12.2255 15.9348 11.9172 15.5874 11.7606 15.3845C11.6039 15.1774 11.3537 14.8167 11.2091 14.576C11.0604 14.3354 10.8427 13.9074 10.7183 13.6204C10.594 13.3335 10.4343 12.8839 10.3602 12.6214C10.2903 12.3588 10.202 11.9543 10.1659 11.7248C10.1297 11.4953 10.087 11.0735 10.0751 10.7851C10.059 10.4968 10.0551 10.1791 10.0621 10.0745C10.0691 9.96984 10.0951 9.71445 10.1176 9.50929Z" fill="white" fill-opacity="0.24"/>
<path fill-rule="evenodd" clip-rule="evenodd" d="M8.21759 28.3375C8.21759 28.7659 8.52339 29.1378 8.94783 29.1825C9.22863 29.212 9.51074 29.2286 9.79259 29.2286C10.1008 29.2286 10.5839 29.1951 10.917 29.1491C11.2377 29.1032 11.6791 29.0279 11.8957 28.9777C12.1123 28.9317 12.4496 28.8439 12.6453 28.7854C12.8411 28.7269 13.1825 28.6014 13.4033 28.5136C13.6282 28.4258 13.9946 28.2586 14.2154 28.1457C14.4402 28.0328 14.7817 27.8405 14.9775 27.715C15.1732 27.5938 15.4814 27.3806 15.6605 27.2426C15.8437 27.1046 16.1644 26.8412 16.3684 26.6531C16.5767 26.4691 16.9307 26.1012 17.1597 25.8377C17.3846 25.5785 17.7303 25.1144 17.9302 24.8176C18.1259 24.5165 18.3966 24.0566 18.5257 23.7932C18.6548 23.5298 18.838 23.1159 18.9296 22.8734C19.0171 22.6309 19.1504 22.217 19.2212 21.9535C19.2878 21.6901 19.3753 21.3138 19.4127 21.1173C19.444 20.9331 19.4972 20.51 19.5277 20.1443C19.6282 19.426 19.5572 18.6764 19.4502 17.9606C19.4169 17.7056 19.3253 17.254 19.2462 16.9572C19.1712 16.6562 19.0296 16.2046 18.9338 15.9537C18.8422 15.6987 18.6506 15.268 18.5132 14.9921C18.3758 14.7161 18.1051 14.2562 17.9135 13.9677C17.7261 13.6792 17.3846 13.2277 17.1597 12.9685C16.9307 12.7051 16.5767 12.3371 16.3684 12.1532C16.1644 11.965 15.8437 11.7016 15.6605 11.5636C15.4814 11.4256 15.1732 11.2124 14.9775 11.0912C14.7817 10.9657 14.4278 10.765 14.1862 10.6438C13.9447 10.5225 13.5782 10.3595 13.3741 10.2759C13.1659 10.1964 12.8119 10.071 12.5829 10.0041C12.3538 9.93301 12.0165 9.84939 11.8332 9.80758C11.65 9.76995 11.2377 9.70306 10.917 9.65706C10.4828 9.59677 10.1475 9.2077 10.2334 8.7761C10.2768 8.57903 10.3763 8.20983 10.4565 7.95794C10.5366 7.70188 10.7348 7.22272 10.9014 6.88613C11.0638 6.54959 11.3247 6.09474 11.4761 5.87542C11.6356 5.63927 11.9969 5.22079 12.3465 4.86101C12.6919 4.50127 13.1079 4.12811 13.3348 3.95802C13.5495 3.80063 13.9959 3.53162 14.327 3.35605C14.6663 3.18037 15.1551 2.96519 15.4454 2.8654C15.7316 2.76983 16.1507 2.64751 16.3792 2.59866C16.6076 2.54981 17.0567 2.48566 17.3769 2.45239C17.8179 2.41343 18.0969 2.40576 18.5221 2.43808C19.0731 2.47601 19.5868 2.05921 19.5868 1.50475C19.5868 1.07363 19.2759 0.702213 18.8482 0.663432C18.6558 0.645989 18.4631 0.633755 18.2706 0.626502C18.0164 0.617134 17.5584 0.63122 17.2505 0.655975C16.9427 0.68491 16.5102 0.740491 16.2942 0.780824C16.0781 0.821157 15.6919 0.909611 15.4428 0.975445C15.1895 1.04133 14.7997 1.17164 14.5717 1.25812C14.3437 1.3446 13.9129 1.53814 13.6191 1.68816C13.3211 1.83824 12.9405 2.05206 12.7712 2.16289C12.6018 2.27373 12.2921 2.49503 12.09 2.65226C11.8837 2.80955 11.5704 3.07271 11.3892 3.23805C11.2081 3.40757 10.9161 3.7081 10.7354 3.91106C10.5588 4.11398 10.284 4.46028 10.1202 4.67976C9.96046 4.89919 9.69492 5.31646 9.53192 5.60702C9.36893 5.89757 9.15357 6.33094 9.05247 6.57473C8.9472 6.81856 8.79826 7.23438 8.71407 7.49886C8.62989 7.76334 8.52259 8.17863 8.47146 8.42179C8.42449 8.6649 8.35477 9.08809 8.32072 9.36449C8.30788 9.45731 8.29632 9.57653 8.28662 9.70692C8.19677 10.2048 8.29613 11.3337 8.32124 11.5306C8.32872 11.5892 8.33683 11.6476 8.34558 11.7057C8.39538 12.0271 8.46714 12.4402 8.5069 12.6236C8.55082 12.8071 8.6383 13.1447 8.71195 13.3737C8.78143 13.6028 8.91076 13.9566 8.99247 14.1647C9.0783 14.3685 9.24526 14.7344 9.36903 14.9753C9.4928 15.2163 9.69709 15.5692 9.82445 15.7641C9.94765 15.9591 10.1639 16.2658 10.3035 16.4439C10.4432 16.6261 10.7096 16.9447 10.8995 17.1473C11.0853 17.354 11.4562 17.7048 11.7214 17.9314C11.9823 18.154 12.4363 18.4912 12.726 18.6757C13.0157 18.8644 13.4771 19.1305 13.7537 19.265C14.0302 19.3995 14.4616 19.5865 14.7167 19.6753C14.9678 19.7683 15.4193 19.9048 15.72 19.9763C16.0167 20.0521 16.4675 20.1384 16.722 20.1687C16.7684 20.1751 16.8149 20.1812 16.8615 20.1871C17.325 20.2451 17.6775 20.6595 17.5762 21.1173C17.5179 21.3807 17.4179 21.7654 17.3471 21.9745C17.2763 22.1793 17.1097 22.5849 16.9723 22.8734C16.8349 23.1619 16.585 23.6009 16.4184 23.8559C16.2477 24.1068 15.9728 24.4747 15.8021 24.6712C15.6313 24.8677 15.3689 25.1395 15.2232 25.2733C15.0774 25.4113 14.865 25.5952 14.7484 25.6872C14.636 25.7792 14.3611 25.9715 14.1446 26.1179C13.928 26.26 13.5157 26.4942 13.2284 26.6321C12.941 26.7701 12.5121 26.9457 12.2705 27.0252C12.029 27.1046 11.6375 27.2091 11.396 27.2593C11.1544 27.3053 10.7796 27.3638 10.563 27.3889C10.3465 27.4098 9.99249 27.4307 9.7801 27.4307C9.61076 27.4307 9.44113 27.4241 9.27173 27.4118C8.72086 27.3718 8.21759 27.783 8.21759 28.3375ZM16.1097 18.2128C16.9249 18.4177 17.6129 17.6739 17.3471 16.8736C17.2555 16.5976 17.0931 16.1837 16.9806 15.9537C16.8724 15.7238 16.6849 15.3767 16.5642 15.1802C16.4434 14.9837 16.2185 14.666 16.0686 14.4695C15.9145 14.2729 15.6147 13.9343 15.3939 13.7169C15.1774 13.4995 14.8276 13.1942 14.6235 13.0395C14.4153 12.8848 14.0529 12.6382 13.8114 12.496C13.5699 12.3497 13.1409 12.1364 12.8535 12.0152C12.5662 11.8939 12.1164 11.7392 11.8541 11.6682C11.6857 11.6252 11.5168 11.5874 11.3471 11.5546C10.7119 11.432 10.1932 11.994 10.3602 12.6214C10.4343 12.8839 10.594 13.3335 10.7183 13.6204C10.8427 13.9074 11.0604 14.3354 11.2091 14.576C11.3537 14.8167 11.6039 15.1774 11.7606 15.3845C11.9172 15.5874 12.2255 15.9348 12.4448 16.1495C12.6641 16.3684 13.0051 16.6652 13.2027 16.8174C13.4003 16.9655 13.7196 17.1873 13.9168 17.3061C14.1141 17.4249 14.462 17.6087 14.6924 17.7145C14.9228 17.8245 15.3371 17.9824 15.6131 18.071C15.7773 18.1237 15.9429 18.1709 16.1097 18.2128Z" fill="white"/>
<path fill-rule="evenodd" clip-rule="evenodd" d="M10.9624 29.4805C10.6149 29.5285 10.1166 29.5631 9.7926 29.5631C9.49778 29.5631 9.204 29.5457 8.91313 29.5151C8.30383 29.4511 7.88442 28.9214 7.88442 28.3375C7.88442 27.5618 8.57973 27.0262 9.29575 27.0782C9.45779 27.09 9.61939 27.0962 9.7801 27.0962C9.97799 27.0962 10.3185 27.0764 10.528 27.0563C10.7351 27.0321 11.0973 26.9756 11.3311 26.9312C11.5607 26.8834 11.938 26.7826 12.1668 26.7073C12.3921 26.6332 12.8075 26.4634 13.0846 26.3304C13.3583 26.199 13.7561 25.973 13.9604 25.8391C14.1789 25.6914 14.4396 25.5084 14.538 25.4279L14.5403 25.4261L14.5426 25.4242C14.6503 25.3393 14.8551 25.162 14.9946 25.0299L14.9965 25.0282L14.9984 25.0265C15.1332 24.9027 15.3869 24.6403 15.551 24.4514C15.7097 24.2688 15.9751 23.9142 16.1415 23.6699C16.3007 23.4258 16.5418 23.0019 16.6717 22.7291C16.8045 22.4503 16.9657 22.0573 17.032 21.8658C17.0972 21.6729 17.1939 21.3024 17.2509 21.0448L17.5762 21.1173C17.5179 21.3807 17.4179 21.7654 17.3471 21.9745C17.2763 22.1793 17.1097 22.5849 16.9723 22.8734C16.8349 23.1619 16.585 23.6009 16.4184 23.8559C16.2477 24.1068 15.9728 24.4747 15.8021 24.6712C15.6313 24.8677 15.3689 25.1395 15.2232 25.2733C15.0774 25.4113 14.865 25.5952 14.7484 25.6872C14.636 25.7792 14.3611 25.9715 14.1446 26.1179C13.928 26.26 13.5157 26.4942 13.2284 26.6321C12.941 26.7701 12.5121 26.9457 12.2705 27.0252C12.029 27.1046 11.6375 27.2091 11.396 27.2593C11.1544 27.3053 10.7796 27.3638 10.563 27.3889C10.3465 27.4098 9.99249 27.4307 9.7801 27.4307C9.61076 27.4307 9.44113 27.4241 9.27173 27.4118C8.72086 27.3718 8.21759 27.783 8.21759 28.3375C8.21759 28.7659 8.52339 29.1378 8.94783 29.1825C9.22863 29.212 9.51074 29.2286 9.79259 29.2286C10.1008 29.2286 10.5839 29.1951 10.917 29.1491C11.2377 29.1032 11.6791 29.0279 11.8957 28.9777C12.1123 28.9317 12.4496 28.8439 12.6453 28.7854C12.8411 28.7269 13.1825 28.6014 13.4033 28.5136C13.6282 28.4258 13.9946 28.2586 14.2154 28.1457C14.4402 28.0328 14.7817 27.8405 14.9775 27.715C15.1732 27.5938 15.4814 27.3806 15.6605 27.2426C15.8437 27.1046 16.1644 26.8412 16.3684 26.6531C16.5767 26.4691 16.9307 26.1012 17.1597 25.8377C17.3846 25.5785 17.7303 25.1144 17.9302 24.8176C18.1259 24.5165 18.3966 24.0566 18.5257 23.7932C18.6548 23.5298 18.838 23.1159 18.9296 22.8734C19.0171 22.6309 19.1504 22.217 19.2212 21.9535C19.2878 21.6901 19.3753 21.3138 19.4127 21.1173C19.444 20.9331 19.4972 20.51 19.5277 20.1443C19.6282 19.426 19.5572 18.6764 19.4502 17.9606C19.4169 17.7056 19.3253 17.254 19.2462 16.9572C19.1712 16.6562 19.0296 16.2046 18.9338 15.9537C18.8422 15.6987 18.6506 15.268 18.5132 14.9921C18.3758 14.7161 18.1051 14.2562 17.9135 13.9677C17.7261 13.6792 17.3846 13.2277 17.1597 12.9685C16.9307 12.7051 16.5767 12.3371 16.3684 12.1532C16.1644 11.965 15.8437 11.7016 15.6605 11.5636C15.4814 11.4256 15.1732 11.2124 14.9775 11.0912C14.7817 10.9657 14.4278 10.765 14.1862 10.6438C13.9447 10.5225 13.5782 10.3595 13.3741 10.2759C13.1659 10.1964 12.8119 10.071 12.5829 10.0041C12.3538 9.93301 12.0165 9.84939 11.8332 9.80758C11.65 9.76995 11.2377 9.70306 10.917 9.65706C10.4828 9.59677 10.1475 9.2077 10.2334 8.7761C10.2768 8.57903 10.3763 8.20983 10.4565 7.95794C10.5366 7.70188 10.7348 7.22272 10.9014 6.88613C11.0638 6.54959 11.3247 6.09474 11.4761 5.87542C11.6356 5.63927 11.9969 5.22079 12.3465 4.86101C12.6919 4.50127 13.1079 4.12811 13.3348 3.95802C13.5495 3.80063 13.9959 3.53162 14.327 3.35605C14.6663 3.18037 15.1551 2.96519 15.4454 2.8654C15.7316 2.76983 16.1507 2.64751 16.3792 2.59866C16.6076 2.54981 17.0567 2.48566 17.3769 2.45239C17.8179 2.41343 18.0969 2.40576 18.5221 2.43808L18.497 2.77161C18.0945 2.74103 17.8344 2.74782 17.4087 2.78537C17.0942 2.81813 16.6601 2.8806 16.4486 2.92582C16.2377 2.9709 15.8328 3.08861 15.552 3.18232C15.2809 3.27565 14.8094 3.48277 14.4811 3.65258C14.1584 3.82387 13.7297 4.08296 13.5328 4.2271C13.3242 4.38367 12.9228 4.74268 12.5863 5.09315L12.585 5.09457C12.2392 5.45042 11.8945 5.85198 11.7518 6.06315L11.7509 6.06455L11.7499 6.06593C11.6104 6.26805 11.3579 6.7073 11.2012 7.03199L11.2005 7.03349L11.1997 7.03498C11.0384 7.36092 10.8478 7.82341 10.7744 8.05819L10.7739 8.05977C10.6969 8.30153 10.601 8.65757 10.5596 8.84446C10.5207 9.04945 10.6802 9.28652 10.9627 9.32574L10.917 9.65706L10.9642 9.32595C11.2861 9.37213 11.7065 9.44016 11.9 9.47989L11.9035 9.48062L11.9071 9.48142C12.0928 9.5238 12.4377 9.60913 12.6786 9.6837C12.9197 9.7543 13.2811 9.88257 13.4925 9.96319L13.4963 9.96464L13.5 9.96618C13.7103 10.0523 14.0847 10.2189 14.3352 10.3446C14.5852 10.4701 14.9477 10.6755 15.1545 10.8078C15.3593 10.9348 15.6741 11.1526 15.8618 11.2971C16.0522 11.4406 16.3786 11.7086 16.5912 11.9044C16.8144 12.1021 17.1769 12.4797 17.4107 12.7485C17.645 13.0185 17.9954 13.4817 18.1917 13.7837C18.3892 14.0813 18.6666 14.5523 18.8112 14.8425C18.9516 15.1244 19.1482 15.5654 19.2461 15.8371C19.3467 16.1012 19.4909 16.5614 19.5687 16.8734C19.6505 17.1808 19.7444 17.6426 19.7801 17.914C19.8876 18.6341 19.9643 19.418 19.859 20.1815C19.8277 20.5517 19.7741 20.9791 19.7412 21.1735L19.7406 21.1769L19.74 21.1803C19.7007 21.3863 19.6113 21.77 19.5441 22.0359L19.5435 22.0383L19.5428 22.0407C19.4692 22.3148 19.3329 22.7377 19.2429 22.9873L19.2421 22.9896L19.2412 22.992C19.1449 23.2468 18.9571 23.6707 18.8246 23.9409C18.6874 24.2208 18.409 24.6931 18.2091 25.0004L18.2077 25.0027L18.2062 25.0049C18.001 25.3095 17.6471 25.7852 17.4109 26.0574C17.1772 26.3263 16.8144 26.7042 16.5912 26.9018C16.3786 27.0976 16.0523 27.3656 15.8618 27.5091C15.6741 27.6536 15.3594 27.8713 15.1546 27.9983C14.9479 28.1306 14.5985 28.3272 14.3656 28.4443C14.1367 28.5613 13.7616 28.7326 13.5251 28.825C13.3009 28.9141 12.9497 29.0434 12.7404 29.106C12.5379 29.1665 12.1939 29.2561 11.9676 29.3043C11.7361 29.3577 11.2861 29.4341 10.9641 29.4803L10.9624 29.4805ZM17.2505 0.655975C17.5584 0.63122 18.0164 0.617134 18.2706 0.626502C18.4631 0.633755 18.6558 0.645989 18.8482 0.663432C19.2759 0.702213 19.5868 1.07363 19.5868 1.50475C19.5868 2.05921 19.0731 2.47601 18.5221 2.43808L18.4993 2.77178C19.2126 2.82089 19.92 2.28206 19.92 1.50475C19.92 0.915861 19.4923 0.385992 18.8782 0.330303C18.6799 0.312319 18.4812 0.299727 18.2831 0.292259C18.0127 0.282296 17.5411 0.297066 17.224 0.322566L17.2217 0.322745L17.2195 0.322955C16.9065 0.352372 16.4631 0.409087 16.2333 0.451981C16.0079 0.494043 15.6141 0.58432 15.3586 0.651826C15.0906 0.721593 14.6894 0.855924 14.4539 0.945228C14.2124 1.03685 13.7709 1.23546 13.4688 1.38962C13.1651 1.54263 12.773 1.76247 12.5892 1.88268C12.4119 1.99871 12.0958 2.22469 11.8872 2.38688C11.6726 2.5506 11.3528 2.81937 11.1652 2.99053L11.1636 2.99195L11.1621 2.99338C10.9729 3.17044 10.6739 3.47831 10.487 3.68814L10.4857 3.68957L10.4845 3.69101C10.301 3.9018 10.021 4.25494 9.85359 4.47915L9.85237 4.48078L9.85117 4.48243C9.6826 4.71403 9.41006 5.14264 9.24164 5.44289C9.07459 5.74066 8.85364 6.18448 8.74583 6.44393C8.63479 6.70156 8.4827 7.12695 8.39672 7.39705C8.30886 7.6731 8.19875 8.09938 8.14548 8.35272L8.14492 8.35541L8.14439 8.35811C8.09641 8.60649 8.02564 9.03562 7.99038 9.32101C7.97692 9.41896 7.96527 9.53876 7.95563 9.6654C7.9065 9.95633 7.91171 10.3879 7.928 10.7468C7.94505 11.1225 7.97678 11.4634 7.99078 11.5731C7.99857 11.6341 8.00703 11.695 8.01616 11.7557L8.01638 11.7572C8.06638 12.0798 8.13938 12.501 8.18135 12.6947L8.18212 12.6983L8.18297 12.7018C8.22749 12.8878 8.31677 13.233 8.39405 13.4738C8.46737 13.7151 8.5996 14.0762 8.68254 14.2874L8.68403 14.2912L8.68561 14.2949C8.77404 14.5049 8.94455 14.8787 9.07292 15.1286C9.20102 15.378 9.41008 15.7395 9.54449 15.9454C9.67351 16.1494 9.89436 16.4627 10.0406 16.6493C10.1859 16.8387 10.4569 17.163 10.6545 17.374C10.8541 17.5956 11.2348 17.9548 11.5054 18.1861C11.7772 18.4179 12.2429 18.7639 12.5461 18.9572C12.845 19.1518 13.3175 19.4245 13.6084 19.566C13.8909 19.7034 14.3325 19.8953 14.6044 19.9902C14.8687 20.0879 15.3289 20.2269 15.6406 20.3012C15.9478 20.3795 16.4088 20.468 16.6796 20.5005C16.7264 20.5069 16.7733 20.5131 16.8202 20.519C17.1284 20.5576 17.3015 20.8165 17.2509 21.0448L17.5762 21.1173C17.6775 20.6595 17.325 20.2451 16.8615 20.1871C16.8149 20.1812 16.7684 20.1751 16.722 20.1687C16.4675 20.1384 16.0167 20.0521 15.72 19.9763C15.4193 19.9048 14.9678 19.7683 14.7167 19.6753C14.4616 19.5865 14.0302 19.3995 13.7537 19.265C13.4771 19.1305 13.0157 18.8644 12.726 18.6757C12.4363 18.4912 11.9823 18.154 11.7214 17.9314C11.4562 17.7048 11.0853 17.354 10.8995 17.1473C10.7096 16.9447 10.4432 16.6261 10.3035 16.4439C10.1639 16.2658 9.94765 15.9591 9.82445 15.7641C9.69709 15.5692 9.4928 15.2163 9.36903 14.9753C9.24526 14.7344 9.0783 14.3685 8.99247 14.1647C8.91076 13.9566 8.78143 13.6028 8.71195 13.3737C8.6383 13.1447 8.55082 12.8071 8.5069 12.6236C8.46714 12.4402 8.39538 12.0271 8.34558 11.7057C8.33683 11.6476 8.32872 11.5892 8.32124 11.5306C8.29613 11.3337 8.19677 10.2048 8.28662 9.70692C8.29632 9.57653 8.30788 9.45731 8.32072 9.36449C8.35477 9.08809 8.42449 8.6649 8.47146 8.42179C8.52259 8.17863 8.62989 7.76334 8.71407 7.49886C8.79826 7.23438 8.9472 6.81856 9.05247 6.57473C9.15357 6.33094 9.36893 5.89757 9.53192 5.60702C9.69492 5.31646 9.96046 4.89919 10.1202 4.67976C10.284 4.46028 10.5588 4.11398 10.7354 3.91106C10.9161 3.7081 11.2081 3.40757 11.3892 3.23805C11.5704 3.07271 11.8837 2.80955 12.09 2.65226C12.2921 2.49503 12.6018 2.27373 12.7712 2.16289C12.9405 2.05206 13.3211 1.83824 13.6191 1.68816C13.9129 1.53814 14.3437 1.3446 14.5717 1.25812C14.7997 1.17164 15.1895 1.04133 15.4428 0.975445C15.6919 0.909611 16.0781 0.821157 16.2942 0.780824C16.5102 0.740491 16.9427 0.68491 17.2505 0.655975ZM16.6805 16.0989L16.6794 16.0967C16.5762 15.8774 16.3946 15.5414 16.2806 15.3559C16.1681 15.1728 15.9514 14.8661 15.8054 14.6746C15.6597 14.489 15.3705 14.1624 15.1606 13.9556L15.1595 13.9545L15.1584 13.9534C14.9525 13.7467 14.6153 13.4527 14.424 13.3075C14.2225 13.1579 13.8713 12.919 13.6429 12.7846L13.6411 12.7835L13.6393 12.7824C13.4144 12.6462 13.0004 12.44 12.7245 12.3235C12.4512 12.2082 12.0174 12.0591 11.7696 11.9917C11.6083 11.9507 11.4465 11.9144 11.2842 11.8831C10.8926 11.8075 10.5794 12.1434 10.6815 12.5328C10.7517 12.7808 10.9056 13.2142 11.0238 13.487C11.1432 13.7626 11.3537 14.1756 11.4922 14.3997L11.4933 14.4015L11.4944 14.4033C11.6311 14.6309 11.8734 14.9805 12.0249 15.1809C12.1719 15.3712 12.469 15.706 12.6774 15.9101L12.6786 15.9112L12.6797 15.9123C12.8882 16.1205 13.2171 16.4067 13.4038 16.5507C13.5963 16.6948 13.9045 16.9086 14.0882 17.0193L13.9168 17.3061C13.7196 17.1873 13.4003 16.9655 13.2027 16.8174C13.0051 16.6652 12.6641 16.3684 12.4448 16.1495C12.2255 15.9348 11.9172 15.5874 11.7606 15.3845C11.6039 15.1774 11.3537 14.8167 11.2091 14.576C11.0604 14.3354 10.8427 13.9074 10.7183 13.6204C10.594 13.3335 10.4343 12.8839 10.3602 12.6214C10.1932 11.994 10.7119 11.432 11.3471 11.5546C11.5168 11.5874 11.6857 11.6252 11.8541 11.6682C12.1164 11.7392 12.5662 11.8939 12.8535 12.0152C13.1409 12.1364 13.5699 12.3497 13.8114 12.496C14.0529 12.6382 14.4153 12.8848 14.6235 13.0395C14.8276 13.1942 15.1774 13.4995 15.3939 13.7169C15.6147 13.9343 15.9145 14.2729 16.0686 14.4695C16.2185 14.666 16.4434 14.9837 16.5642 15.1802C16.6849 15.3767 16.8724 15.7238 16.9806 15.9537C17.0931 16.1837 17.2555 16.5976 17.3471 16.8736L17.031 16.9793C16.9426 16.713 16.7856 16.3138 16.6816 16.1011L16.6805 16.0989ZM13.9168 17.3061L14.0882 17.0193C14.2744 17.1314 14.6114 17.3095 14.831 17.4104L14.8333 17.4114L14.8355 17.4125C15.0486 17.5142 15.4481 17.6669 15.7145 17.7524C15.8719 17.8029 16.0307 17.8482 16.1906 17.8884C16.7515 18.0293 17.2134 17.5285 17.031 16.9793L17.3471 16.8736C17.6129 17.6739 16.9249 18.4177 16.1097 18.2128C15.9429 18.1709 15.7773 18.1237 15.6131 18.071C15.3371 17.9824 14.9228 17.8245 14.6924 17.7145C14.462 17.6087 14.1141 17.4249 13.9168 17.3061Z" fill="white"/>
<path d="M37.5188 14.0125C37.999 14.0125 38.3883 14.4018 38.3883 14.882V28.6935C38.3883 29.1738 37.999 29.5631 37.5188 29.5631H36.9819C36.6484 29.5631 36.378 29.2927 36.378 28.9591C36.378 28.3426 35.4077 28.0218 34.9221 28.4017C34.6676 28.6009 34.3941 28.781 34.1015 28.9422C33.1358 29.4547 32.0321 29.7109 30.7904 29.7109C28.7603 29.7109 27.1541 29.1492 25.9715 28.0258C24.8087 26.8826 24.2272 25.2172 24.2272 23.0295V14.882C24.2272 14.4018 24.6165 14.0125 25.0968 14.0125H25.4567C25.937 14.0125 26.3263 14.4018 26.3263 14.882V22.8225C26.3263 24.4584 26.7303 25.7001 27.5384 26.5476C28.3465 27.3951 29.4994 27.8188 30.9973 27.8188C32.6332 27.8188 33.9242 27.3261 34.8702 26.3406C35.8162 25.3354 36.2893 23.9459 36.2893 22.1721V14.882C36.2893 14.4018 36.6786 14.0125 37.1588 14.0125H37.5188Z" fill="white"/>
<path d="M46.2774 14.5698C46.2774 15.1648 47.3339 15.4875 47.8052 15.1242C48.0113 14.9652 48.2313 14.8213 48.4652 14.6925C49.2456 14.2711 50.1681 14.0165 51.2328 13.9288C51.7114 13.8894 52.1015 14.2836 52.1015 14.7638V15.4307C52.1015 15.7038 51.8716 15.9206 51.5989 15.9046C49.9631 15.9046 48.682 16.4072 47.7556 17.4123C46.8293 18.4175 46.3661 19.8267 46.3661 21.64V28.6935C46.3661 29.1738 45.9768 29.5631 45.4966 29.5631H45.1366C44.6564 29.5631 44.2671 29.1738 44.2671 28.6935V14.882C44.2671 14.4018 44.6564 14.0125 45.1366 14.0125H45.7201C46.0279 14.0125 46.2774 14.262 46.2774 14.5698Z" fill="white"/>
<path d="M68.2948 14.0125C68.9242 14.0125 69.3451 14.6604 69.0892 15.2355L62.945 29.047C62.8053 29.3608 62.494 29.5631 62.1505 29.5631H61.1231C60.779 29.5631 60.4674 29.3602 60.328 29.0457L54.21 15.2342C53.9554 14.6593 54.3763 14.0125 55.005 14.0125H55.289C55.6339 14.0125 55.9462 14.2163 56.085 14.532L60.8887 25.4561C61.1927 26.1474 62.1728 26.1492 62.4793 25.4591L67.3344 14.5291C67.4739 14.215 67.7854 14.0125 68.129 14.0125H68.2948Z" fill="white"/>
<path d="M78.8082 27.8484C79.774 27.8484 80.6609 27.6808 81.469 27.3458C81.977 27.1281 82.4367 26.851 82.8482 26.5145C83.2597 26.178 83.8817 26.1692 84.2305 26.5703L84.2649 26.6098C84.5448 26.9318 84.5541 27.4143 84.2464 27.7099C83.6562 28.2767 82.9669 28.7269 82.1785 29.0605C81.1536 29.4941 80.0204 29.7109 78.7787 29.7109C77.1822 29.7109 75.7632 29.3758 74.5215 28.7057C73.2798 28.0159 72.3141 27.0699 71.6242 25.8676C70.9344 24.6653 70.5895 23.3054 70.5895 21.7878C70.5895 20.2702 70.9147 18.9102 71.5651 17.708C72.2352 16.5057 73.1517 15.5695 74.3145 14.8994C75.4774 14.2293 76.7979 13.8943 78.2761 13.8943C79.6557 13.8943 80.8974 14.2096 82.0011 14.8403C83.1245 15.471 84.0115 16.3481 84.6619 17.4715C85.2156 18.3998 85.554 19.4358 85.6771 20.5795C85.7226 21.0023 85.4202 21.3743 85.0028 21.4554L73.9084 23.6127C73.3996 23.7116 73.0842 24.2352 73.3124 24.7005C73.7262 25.544 74.3164 26.2385 75.0832 26.7841C76.1278 27.4936 77.3695 27.8484 78.8082 27.8484ZM78.2761 15.6976C77.1921 15.6976 76.2165 15.9539 75.3493 16.4663C74.5018 16.959 73.8317 17.6587 73.3389 18.5653C72.8659 19.4522 72.6294 20.4771 72.6294 21.64C72.6294 21.9944 72.9506 22.2338 73.2986 22.1662L82.7836 20.3255C83.2511 20.2348 83.5661 19.7814 83.4155 19.3297C83.1055 18.3997 82.5749 17.6127 81.8237 16.9689C80.858 16.1214 79.6754 15.6976 78.2761 15.6976Z" fill="white"/>
<path d="M99.901 29.5631C99.6291 29.5631 99.3728 29.4359 99.2084 29.2193L95.2228 23.9687C94.8754 23.5111 94.1878 23.5102 93.8391 23.9667L89.8265 29.2213C89.662 29.4367 89.4065 29.5631 89.1355 29.5631H88.9679C88.2462 29.5631 87.8386 28.7346 88.2791 28.1629L92.9401 22.1126C93.1814 21.7993 93.181 21.3627 92.9391 21.0499L88.58 15.414C88.138 14.8425 88.5454 14.0125 89.2678 14.0125H89.4323C89.7027 14.0125 89.9576 14.1383 90.1222 14.3528L93.8423 19.2031C94.1903 19.6569 94.8742 19.6569 95.2222 19.2031L98.9423 14.3528C99.1068 14.1383 99.3619 14.0125 99.6322 14.0125H99.7375C100.46 14.0125 100.867 14.8425 100.425 15.414L96.0683 21.0474C95.8254 21.3613 95.826 21.7999 96.0697 22.1132L100.773 28.1597C101.217 28.7309 100.81 29.5631 100.086 29.5631H99.901Z" fill="white"/>
<path d="M118.13 14.0125C118.611 14.0125 119 14.4018 119 14.882V28.6935C119 29.1738 118.611 29.5631 118.13 29.5631H117.659C117.289 29.5631 116.99 29.2632 116.99 28.8934C116.99 28.2151 115.945 27.8672 115.409 28.2829C115.119 28.5078 114.808 28.7079 114.477 28.8831C113.452 29.435 112.289 29.7109 110.988 29.7109C109.53 29.7109 108.209 29.3758 107.027 28.7057C105.844 28.0356 104.918 27.0994 104.248 25.8972C103.578 24.6949 103.242 23.3251 103.242 21.7878C103.242 20.2505 103.578 18.8807 104.248 17.6784C104.918 16.4762 105.844 15.5498 107.027 14.8994C108.209 14.2293 109.53 13.8943 110.988 13.8943C112.25 13.8943 113.383 14.1603 114.388 14.6925C114.735 14.8659 115.06 15.0675 115.364 15.2973C115.9 15.7024 116.901 15.3582 116.901 14.6865C116.901 14.3143 117.203 14.0125 117.575 14.0125H118.13ZM111.166 27.8484C112.25 27.8484 113.225 27.602 114.092 27.1093C114.979 26.5968 115.669 25.8774 116.162 24.9511C116.674 24.0248 116.931 22.9703 116.931 21.7878C116.931 20.6052 116.674 19.5508 116.162 18.6245C115.669 17.6981 114.979 16.9886 114.092 16.4959C113.225 15.9834 112.25 15.7272 111.166 15.7272C110.062 15.7272 109.067 15.9834 108.18 16.4959C107.312 16.9886 106.623 17.6981 106.11 18.6245C105.617 19.5508 105.371 20.6052 105.371 21.7878C105.371 22.9703 105.617 24.0248 106.11 24.9511C106.623 25.8774 107.312 26.5968 108.18 27.1093C109.067 27.602 110.062 27.8484 111.166 27.8484Z" fill="white"/>
</svg>
